<svg width="24" height="21" viewBox="0 0 24 21" fill="none" xmlns="http://www.w3.org/2000/svg">
<path d="M22.7814 8.99869L12.6312 0.969043C12.3299 0.721977 11.6092 0.724815 11.2848 0.971881L1.15816 9.00153C0.787376 9.29801 0.721231 10.08 0.99932 10.5C1.27741 10.92 1.99429 10.995 2.36507 10.6986L3.5933 9.735L4.49668 20.0871C4.49668 20.6059 4.89064 21.0012 5.35412 21.0012H18.6426C19.1292 21.0012 19.5 20.5812 19.5 20.0871L20.3481 9.7103L21.5764 10.6739C21.7386 10.7974 21.924 10.8468 22.0862 10.8468C22.3411 10.8468 22.8378 10.7471 23 10.5C23.3476 10.1047 23.1522 9.29517 22.7814 8.99869ZM17.6426 19.0012H6.35412L5.35412 8.35143L12.0051 3.06422L18.656 8.32673L17.6426 19.0012Z" fill="#222222"/>
<path fill-rule="evenodd" clip-rule="evenodd" d="M15 14C15 12.3431 13.6569 11 12 11C10.3431 11 9 12.3431 9 14V20H15V14Z" fill="#222222"/>
<path d="M14.8071 8.29007C14.8995 8.11001 14.927 7.90422 14.8849 7.7065C14.8523 7.53843 14.7699 7.38365 14.6484 7.26179C14.527 7.13993 14.3718 7.05622 14.2023 7.02156C13.9298 6.96118 13.6442 7.02919 13.4295 7.20598C13.1654 7.41286 12.8368 7.71369 12.5 7.7065L11.4041 7.70628C11.0673 7.71348 10.7387 7.41265 10.4746 7.20577C10.26 7.02919 9.97429 6.96118 9.70185 7.02156C9.53235 7.05622 9.37718 7.13993 9.25573 7.26179C9.13428 7.38365 9.05184 7.53843 9.01922 7.7065C8.97712 7.90401 9.00467 8.11001 9.09703 8.29007C9.16492 8.42152 9.16492 8.57739 9.09703 8.70884C9.00489 8.88891 8.97734 9.09469 9.01922 9.2922C9.05206 9.46027 9.13428 9.61526 9.25573 9.73712C9.37718 9.8592 9.53235 9.94313 9.70185 9.97822C9.97429 10.0386 10.26 9.97059 10.4746 9.7938C10.7385 9.58671 11.0671 9.28565 11.4041 9.29241L12.5002 9.29263C12.8372 9.28587 13.1659 9.58692 13.4297 9.79402C13.6444 9.97081 13.9301 10.0388 14.2025 9.97844C14.372 9.94334 14.5272 9.85941 14.6486 9.73734C14.7701 9.61526 14.8523 9.46048 14.8851 9.29241C14.927 9.09491 14.8995 8.88912 14.8073 8.70884C14.7394 8.57739 14.7392 8.42152 14.8071 8.29007Z" fill="#222222"/>
</svg>
