<svg width="21" height="21" viewBox="0 0 21 21" fill="none" xmlns="http://www.w3.org/2000/svg">
<path d="M11.6989 7.76848C11.9925 7.76848 12.274 7.65076 12.4815 7.4414C12.689 7.23204 12.8057 6.94803 12.8057 6.65182C12.8057 6.3556 12.689 6.07159 12.4815 5.86223C12.274 5.65288 11.9925 5.53516 11.6989 5.53516C11.4053 5.53516 11.1238 5.65288 10.9163 5.86223C10.7088 6.07159 10.5921 6.3556 10.5921 6.65182C10.5921 6.94803 10.7088 7.23204 10.9163 7.4414C11.1238 7.65076 11.4053 7.76848 11.6989 7.76848ZM7.27195 8.8849C7.27195 8.58869 7.15551 8.30468 6.94776 8.09532C6.74025 7.88596 6.45875 7.76824 6.16515 7.76824C5.87156 7.76824 5.59006 7.88572 5.38255 8.09532C5.17527 8.30468 5.05859 8.58869 5.05859 8.8849C5.05859 9.18111 5.17527 9.46512 5.38278 9.67448C5.59029 9.88384 5.8718 10.0016 6.16539 10.0016C6.45899 10.0016 6.74049 9.88384 6.948 9.67448C7.15551 9.46512 7.27219 9.18111 7.27219 8.8849H7.27195ZM13.9123 7.76848C13.6187 7.76848 13.3372 7.88596 13.1297 8.09556C12.9222 8.30491 12.8055 8.58892 12.8055 8.88514C12.8055 9.18135 12.9219 9.46536 13.1297 9.67472C13.3372 9.88408 13.6187 10.0018 13.9123 10.0018C14.2059 10.0018 14.4874 9.88408 14.6949 9.67472C14.9024 9.46536 15.0191 9.18135 15.0191 8.88514C15.0191 8.58892 14.9024 8.30491 14.6949 8.09556C14.4874 7.8862 14.2059 7.76848 13.9123 7.76848ZM8.37875 7.76848C8.67235 7.76848 8.95385 7.65076 9.16136 7.4414C9.36887 7.23204 9.48555 6.94803 9.48555 6.65182C9.48555 6.3556 9.36887 6.07159 9.16136 5.86223C8.95385 5.65288 8.67235 5.53516 8.37875 5.53516C8.08515 5.53516 7.80365 5.65288 7.59614 5.86223C7.38863 6.07159 7.27195 6.3556 7.27195 6.65182C7.27195 6.94803 7.38863 7.23204 7.59614 7.4414C7.80365 7.65076 8.08515 7.76848 8.37875 7.76848ZM10.0388 8.32669C9.59037 8.32669 9.15259 8.46475 8.78357 8.72172C8.4148 8.97893 8.13211 9.34333 7.97322 9.76636C7.88405 10.003 7.71899 10.2025 7.50436 10.3337C7.1344 10.5595 6.8382 10.89 6.65322 11.2843C6.46824 11.6786 6.40207 12.1191 6.46349 12.5512C6.53891 13.0833 6.80239 13.57 7.20484 13.9222C7.60753 14.2742 8.12239 14.4682 8.65527 14.468C8.98065 14.468 9.30176 14.3933 9.59464 14.2498C9.87543 14.1138 10.202 14.1138 10.4828 14.2498C10.7754 14.3933 11.0965 14.4677 11.4222 14.4677C11.9548 14.4677 12.4699 14.2742 12.8723 13.922C13.275 13.57 13.5383 13.0833 13.6139 12.5512C13.6754 12.1193 13.6094 11.6788 13.4242 11.2843C13.2392 10.89 12.943 10.5593 12.5731 10.3334C12.3584 10.2025 12.1936 10.0028 12.1044 9.76636C11.9456 9.34333 11.6631 8.97893 11.2941 8.72172C10.9253 8.46451 10.4873 8.32669 10.0388 8.32645V8.32669Z" fill="#999999"/>
<path d="M1.99967 2.99994C1.99967 2.44752 2.44752 1.99967 2.99994 1.99967H5.49975C6.05216 1.99967 6.49958 1.55225 6.49958 0.999837C6.49958 0.447419 6.05216 0 5.49975 0H2.99994C1.34312 0 0 1.34312 0 2.99994V5.49975C0 6.05216 0.447848 6.50001 0.999837 6.50001C1.55183 6.50001 1.99967 6.05259 1.99967 5.50017V3.00037V2.99994Z" fill="#999999"/>
<path d="M14.5037 0C13.9513 0 13.5039 0.447419 13.5039 0.999837C13.5039 1.55225 13.9518 1.99967 14.5037 1.99967H17.0035C17.556 1.99967 18.0038 2.44752 18.0038 2.99994V5.49975C18.0038 6.05216 18.4517 6.49958 19.0037 6.49958C19.5556 6.49958 20.0035 6.05173 20.0035 5.49975V2.99994C20.0039 1.34312 18.6608 0 17.004 0H14.5042H14.5037Z" fill="#999999"/>
<path d="M1.99967 14.5037C1.99967 13.9513 1.55225 13.5039 0.999837 13.5039C0.447419 13.5039 0 13.9518 0 14.5037V17.0035C0 18.6604 1.34312 20.0035 2.99994 20.0035H5.49975C6.05216 20.0035 6.49958 19.5556 6.49958 19.0037C6.49958 18.4517 6.05173 18.0038 5.49975 18.0038H2.99994C2.44752 18.0038 1.99967 17.556 1.99967 17.0035V14.5037Z" fill="#999999"/>
<path d="M19.9999 14.5037C19.9999 13.9513 19.552 13.5039 19 13.5039C18.4481 13.5039 18.0002 13.9518 18.0002 14.5037V17.0035C18.0002 17.556 17.5524 18.0038 16.9999 18.0038H15.0003C14.4478 18.0038 14 18.4517 14 19.0037C14 19.5556 14.4478 20.0035 15.0003 20.0035H16.9999C18.6568 20.0035 19.9999 18.6604 19.9999 17.0035V14.5037Z" fill="#999999"/>
</svg>
