<svg width="22" height="22" viewBox="0 0 22 22" fill="none" xmlns="http://www.w3.org/2000/svg">
<path d="M5.0002 13.1259C5.04036 13.6608 4.64008 14.1308 4.08004 14.1829C3.39996 14.2351 2.8002 14.7439 2.64 15.4228L2.0398 18.059C2.01317 18.1765 1.99964 18.294 1.99964 18.4115C1.99964 18.8422 2.18647 19.2596 2.4798 19.5599C2.78667 19.8603 3.18651 20.0427 3.66667 20.0427H18.3333C18.8135 20.0427 19.2133 19.8599 19.5202 19.5599C19.8135 19.2596 20.0004 18.8422 20.0004 18.4115C20.0004 18.294 19.9868 18.1765 19.9602 18.0462L19.36 15.4361C19.1998 14.7443 18.6 14.2355 17.92 14.1834C17.3735 14.1312 16.9601 13.6612 16.9998 13.1263C17.0531 12.5914 17.5332 12.1868 18.0797 12.2257C19.6664 12.356 20.9598 13.4916 21.3064 15.0054L21.9066 17.6287C21.9734 17.8894 22 18.1504 22 18.4115C22 20.3431 20.4002 22.0004 18.3333 22.0004H3.66667C1.5998 22.0004 0 20.3431 0 18.4115C0 18.1504 0.026627 17.8894 0.0934127 17.6283L0.693611 14.9922C1.0402 13.4912 2.33357 12.356 3.92028 12.2252C4.46679 12.1864 4.94651 12.591 5.0002 13.1259Z" fill="#999999"/>
<path d="M4.44722 9.42398V9.41022C3.91255 8.46112 3.66797 7.47118 3.66797 6.50831C3.66797 4.79967 4.43171 3.1727 5.73062 1.97944C7.02904 0.772865 8.89263 0 11.0013 0C13.11 0 14.9586 0.772865 16.257 1.97988C17.5554 3.17314 18.3346 4.80011 18.3346 6.50876C18.3346 7.47162 18.0751 8.47488 17.5554 9.41066L13.2165 17.126C12.7734 17.9126 11.8566 18.3463 11.0013 18.333C10.1305 18.3468 9.22924 17.9126 8.7861 17.126L4.44722 9.42398Z" fill="#999999"/>
<path d="M12.6667 5.25012C12.9614 5.25012 13.244 5.13152 13.4524 4.92058C13.6607 4.70965 13.7779 4.4235 13.7779 4.12506C13.7779 3.82662 13.6607 3.54047 13.4524 3.32954C13.244 3.11861 12.9614 3 12.6667 3C12.3719 3 12.0893 3.11861 11.881 3.32954C11.6726 3.54047 11.5555 3.82662 11.5555 4.12506C11.5555 4.4235 11.6726 4.70965 11.881 4.92058C12.0893 5.13152 12.3719 5.25012 12.6667 5.25012ZM8.22214 6.37494C8.22214 6.0765 8.10524 5.79035 7.89667 5.57942C7.68833 5.36848 7.40571 5.24988 7.11095 5.24988C6.81619 5.24988 6.53357 5.36824 6.32524 5.57942C6.11714 5.79035 6 6.0765 6 6.37494C6 6.67338 6.11714 6.95953 6.32548 7.17046C6.53381 7.3814 6.81643 7.5 7.11119 7.5C7.40595 7.5 7.68857 7.3814 7.8969 7.17046C8.10524 6.95953 8.22238 6.67338 8.22238 6.37494H8.22214ZM14.8888 5.25012C14.594 5.25012 14.3114 5.36848 14.1031 5.57966C13.8948 5.79059 13.7776 6.07674 13.7776 6.37518C13.7776 6.67362 13.8945 6.95977 14.1031 7.1707C14.3114 7.38164 14.594 7.50024 14.8888 7.50024C15.1836 7.50024 15.4662 7.38164 15.6745 7.1707C15.8829 6.95977 16 6.67362 16 6.37518C16 6.07674 15.8829 5.79059 15.6745 5.57966C15.4662 5.36873 15.1836 5.25012 14.8888 5.25012ZM9.33333 5.25012C9.6281 5.25012 9.91071 5.13152 10.119 4.92058C10.3274 4.70965 10.4445 4.4235 10.4445 4.12506C10.4445 3.82662 10.3274 3.54047 10.119 3.32954C9.91071 3.11861 9.6281 3 9.33333 3C9.03857 3 8.75595 3.11861 8.54762 3.32954C8.33929 3.54047 8.22214 3.82662 8.22214 4.12506C8.22214 4.4235 8.33929 4.70965 8.54762 4.92058C8.75595 5.13152 9.03857 5.25012 9.33333 5.25012ZM11 5.81253C10.5498 5.81253 10.1102 5.95163 9.73976 6.21053C9.36952 6.46968 9.08571 6.83682 8.92619 7.26303C8.83667 7.50145 8.67095 7.7025 8.45548 7.8346C8.08405 8.06217 7.78667 8.39508 7.60095 8.79236C7.41524 9.18964 7.34881 9.63344 7.41048 10.0688C7.48619 10.6049 7.75071 11.0953 8.15476 11.4501C8.55905 11.8047 9.07595 12.0002 9.61095 12C9.93762 12 10.26 11.9248 10.554 11.7801C10.836 11.6432 11.1638 11.6432 11.4457 11.7801C11.7395 11.9248 12.0619 11.9998 12.3888 11.9998C12.9236 11.9998 13.4407 11.8047 13.8448 11.4499C14.249 11.0953 14.5133 10.6049 14.5893 10.0688C14.651 9.63369 14.5848 9.18988 14.3988 8.79236C14.2131 8.39508 13.9157 8.06193 13.5443 7.83436C13.3288 7.7025 13.1633 7.50121 13.0738 7.26303C12.9143 6.83682 12.6307 6.46968 12.2602 6.21053C11.89 5.95138 11.4502 5.81253 11 5.81229V5.81253Z" fill="white"/>
</svg>
