<svg width="24" height="24" viewBox="0 0 24 24" fill="none" xmlns="http://www.w3.org/2000/svg">
<path d="M20 11.7411V12.7781C20 13.3282 19.7592 13.8557 19.3305 14.2446C18.9019 14.6336 18.3205 14.8521 17.7143 14.8521H17.68C17.4399 16.8587 15.8 18.1393 13.1428 18.4192V18.4815C13.1428 18.619 13.0826 18.7509 12.9755 18.8482C12.8683 18.9454 12.7229 19 12.5714 19H11.4286C11.277 19 11.1316 18.9454 11.0245 18.8482C10.9173 18.7509 10.8571 18.619 10.8571 18.4815V17.4445C10.8571 17.307 10.9173 17.1751 11.0245 17.0779C11.1316 16.9807 11.277 16.9261 11.4286 16.9261H12.5714C12.7118 16.9251 12.8477 16.9712 12.9531 17.0553C13.0584 17.1395 13.126 17.2559 13.1429 17.3823C14.7486 17.1904 16.5714 16.5008 16.5714 14.3336V10.1857C16.5714 8.7038 15.7001 7.33447 14.2857 6.59359C12.8713 5.85254 11.1287 5.85254 9.71428 6.59359C8.29988 7.33453 7.42857 8.70389 7.42857 10.1857V14.3336C7.42857 14.4711 7.36836 14.603 7.26122 14.7002C7.15408 14.7974 7.00867 14.8521 6.85714 14.8521H6.28571C5.67948 14.8521 5.09809 14.6335 4.66952 14.2446C4.24082 13.8557 4 13.3282 4 12.7781V11.7411C4 11.1911 4.24082 10.6635 4.66952 10.2747C5.09809 9.88569 5.67948 9.66718 6.28571 9.66718H6.31428C6.45574 8.38809 7.11582 7.20241 8.16646 6.33998C9.21711 5.47754 10.5833 5 11.9999 5C13.4165 5 14.7829 5.47751 15.8334 6.33998C16.884 7.2023 17.5441 8.388 17.6856 9.66718H17.7141C18.3204 9.66718 18.9018 9.88569 19.3303 10.2747C19.759 10.6635 19.9999 11.1911 19.9999 11.7411L20 11.7411Z" fill="#8A8A8A"/>
</svg>
