<svg width="24" height="24" viewBox="0 0 24 24" fill="none" xmlns="http://www.w3.org/2000/svg">
<path d="M18.321 10.1947C18.6366 10.006 18.8576 9.70244 18.9524 9.34144C19.0471 8.98044 18.9996 8.60298 18.8183 8.27483L18.5104 7.7251C18.3289 7.40505 18.0369 7.16715 17.6897 7.06865C17.3425 6.97841 16.9715 7.02758 16.6638 7.21632L16.0483 7.58554L13.6572 6.14971V5.41126C13.6572 4.63173 13.0496 4 12.3078 4H11.6923C10.9504 4 10.3428 4.63173 10.3428 5.41126V6.14971L7.9517 7.58554L7.33619 7.21632C7.02057 7.02758 6.65753 6.97841 6.31032 7.06865C5.9631 7.16714 5.67116 7.40505 5.4896 7.7251L5.18177 8.27483C5.00025 8.60298 4.95295 8.98044 5.04768 9.34144C5.14241 9.70244 5.3633 10.006 5.67906 10.1947L6.29458 10.564V13.4358L5.67906 13.805C5.03195 14.1988 4.81093 15.0603 5.18192 15.7251L5.48975 16.2748C5.67127 16.6029 5.96325 16.8327 6.31046 16.9312C6.65767 17.0297 7.02071 16.9804 7.33633 16.7918L7.95185 16.4226L10.343 17.8503V18.597C10.343 19.3683 10.9506 20 11.6924 20H12.3079C13.0498 20 13.6573 19.3683 13.6573 18.597V17.8503L16.0485 16.4226L16.664 16.7918C16.9796 16.9805 17.3426 17.0297 17.6899 16.9312C18.0371 16.8327 18.329 16.6031 18.5106 16.2748L18.8184 15.7251C19.1893 15.0605 18.9683 14.199 18.3213 13.805L17.7057 13.4358V10.564L18.3213 10.1947H18.321ZM11.9997 14.3382C10.7608 14.3382 9.75061 13.2879 9.75061 11.9997C9.75061 10.7116 10.7608 9.66129 11.9997 9.66129C13.2387 9.66129 14.2489 10.7116 14.2489 11.9997C14.2489 13.2879 13.2387 14.3382 11.9997 14.3382Z" fill="#8A8A8A"/>
</svg>
