<svg width="24" height="24" viewBox="0 0 24 24" fill="none" xmlns="http://www.w3.org/2000/svg">
<path d="M9.45105 7.83358C9.45105 8.32376 9.05078 8.72252 8.55874 8.72252H8.42796C7.93593 8.72252 7.53566 8.32376 7.53566 7.83358V7.01976H7.25449C6.56279 7.01976 6 7.58034 6 8.26953V16.7516C6 17.4407 6.5627 18.0012 7.25449 18.0012H14.7433C14.8292 18.0012 14.9087 17.9772 14.9788 17.9384C15.0479 17.915 15.113 17.8775 15.1679 17.8225C15.1679 17.8225 17.8009 15.1583 17.824 15.1056C17.9307 15.0165 18 14.8842 18 14.7345V8.26929C18 7.5802 17.4373 7.01953 16.7457 7.01953H16.4644V7.83325C16.4644 8.32343 16.0642 8.72219 15.5722 8.72219H15.4414C14.9494 8.72219 14.5491 8.32343 14.5491 7.83325V7.01963H9.45123L9.45105 7.83358ZM17.0232 10.7382V14.5749L17.0025 14.5958H15.5252C15.057 14.5958 14.6741 14.9773 14.6741 15.4437V16.9365L14.5828 17.0282H7.25459C7.10402 17.0282 6.97688 16.9015 6.97688 16.7515L6.97698 10.7381L17.0232 10.7382Z" fill="#999999"/>
<path d="M8.55777 6H8.42699C8.14621 6 7.91797 6.22747 7.91797 6.50711V7.83108C7.91797 8.11081 8.1463 8.33818 8.42699 8.33818H8.55777C8.83856 8.33818 9.0668 8.11072 9.0668 7.83108V6.50711C9.06671 6.22747 8.83838 6 8.55777 6Z" fill="#999999"/>
<path d="M15.4426 8.33809H15.5734C15.854 8.33809 16.0823 8.11062 16.0823 7.83098V6.50711C16.0823 6.22747 15.854 6 15.5734 6H15.4426C15.1618 6 14.9336 6.22747 14.9336 6.50711V7.83108C14.9336 8.11071 15.1619 8.33809 15.4426 8.33809Z" fill="#999999"/>
</svg>
