<svg width="24" height="24" viewBox="0 0 24 24" fill="none" xmlns="http://www.w3.org/2000/svg">
<path d="M17.8372 6.15546C17.6299 5.94818 17.2936 5.94818 17.0863 6.15546L11.9999 11.2489L8.12307 7.37745L6.9064 6.16257C6.69911 5.95529 6.36276 5.95529 6.15547 6.16257C5.94818 6.36986 5.94818 6.7062 6.15547 6.91349L7.37214 8.12837L11.2489 11.9998L6.16254 17.0933C5.95525 17.3005 5.95525 17.6369 6.16254 17.8442C6.26707 17.9469 6.40158 18 6.53801 18C6.67444 18 6.81072 17.9487 6.91348 17.8442L11.9999 12.7507L15.4482 16.1935L17.0936 17.8371C17.1981 17.9399 17.3326 17.9929 17.4691 17.9929C17.6055 17.9929 17.7418 17.9416 17.8445 17.8371C18.0518 17.6298 18.0518 17.2935 17.8445 17.0862L16.1992 15.4426L12.7508 11.9998L17.8372 6.90638C18.0445 6.6991 18.0445 6.36275 17.8372 6.15546Z" fill="black"/>
</svg>
