<svg width="24" height="24" viewBox="0 0 24 24" fill="none" xmlns="http://www.w3.org/2000/svg">
<circle cx="12" cy="12" r="7.5" fill="white" stroke="#8A8A8A"/>
<circle cx="12" cy="12" r="2" fill="#8A8A8A"/>
<path d="M20.5 11.5L18 11.5C17.8214 11.5 17.6563 11.5953 17.567 11.75C17.4777 11.9047 17.4777 12.0953 17.567 12.25C17.6563 12.4047 17.8214 12.5 18 12.5H20.5C20.6786 12.5 20.8437 12.4047 20.933 12.25C21.0223 12.0953 21.0223 11.9047 20.933 11.75C20.8437 11.5953 20.6786 11.5 20.5 11.5Z" fill="#8A8A8A"/>
<path d="M6 11.5L3.49999 11.5C3.32137 11.5 3.1563 11.5953 3.06699 11.75C2.97767 11.9047 2.97767 12.0953 3.06699 12.25C3.1563 12.4047 3.32136 12.5 3.49999 12.5H6C6.17863 12.5 6.34369 12.4047 6.43301 12.25C6.52232 12.0953 6.52232 11.9047 6.43301 11.75C6.34369 11.5953 6.17863 11.5 6 11.5Z" fill="#8A8A8A"/>
<path d="M12.5 20.5L12.5 18C12.5 17.8214 12.4047 17.6563 12.25 17.567C12.0953 17.4777 11.9047 17.4777 11.75 17.567C11.5953 17.6563 11.5 17.8214 11.5 18L11.5 20.5C11.5 20.6786 11.5953 20.8437 11.75 20.933C11.9047 21.0223 12.0953 21.0223 12.25 20.933C12.4047 20.8437 12.5 20.6786 12.5 20.5Z" fill="#8A8A8A"/>
<path d="M12.5 6L12.5 3.49999C12.5 3.32137 12.4047 3.1563 12.25 3.06699C12.0953 2.97767 11.9047 2.97767 11.75 3.06699C11.5953 3.1563 11.5 3.32136 11.5 3.49999L11.5 6C11.5 6.17863 11.5953 6.34369 11.75 6.43301C11.9047 6.52232 12.0953 6.52232 12.25 6.43301C12.4047 6.34369 12.5 6.17863 12.5 6Z" fill="#8A8A8A"/>
</svg>
