<svg width="24" height="24" viewBox="0 0 24 24" fill="none" xmlns="http://www.w3.org/2000/svg">
<path d="M12.406 17.8047C12.4911 17.7132 12.5189 17.5757 12.5264 17.4837L12.5262 16.2263L13.7836 16.2265C13.9209 16.2292 14.058 16.1657 14.1448 16.0593C14.252 15.9262 14.2745 15.7302 14.1999 15.5764C14.1254 15.4225 13.9577 15.3185 13.7867 15.3201L12.526 15.3166L12.5258 13.8316C13.4159 13.733 14.28 13.3484 14.9602 12.6682C16.552 11.0764 16.5517 8.48137 14.9595 6.88915C13.3672 5.29693 10.7722 5.29658 9.18044 6.88837C7.58865 8.48015 7.589 11.0752 9.18122 12.6674C9.86264 13.3488 10.7279 13.7367 11.6194 13.8349L11.6196 15.3198L10.3622 15.3197C10.1153 15.303 9.87833 15.5235 9.87747 15.7709C9.87661 16.0183 10.1119 16.2408 10.359 16.226L11.6164 16.2262L11.6199 17.4869C11.6168 17.6691 11.7348 17.8474 11.9038 17.9158C12.0727 17.9841 12.2815 17.9379 12.4058 17.8047L12.406 17.8047ZM14.3182 12.026C13.0734 13.2708 11.0686 13.2705 9.82342 12.0254C8.5783 10.7802 8.57799 8.7754 9.82281 7.53057C11.0676 6.28575 13.0724 6.28602 14.3176 7.53118C15.5627 8.7763 15.563 10.7812 14.3182 12.026Z" fill="#D6459C"/>
</svg>
