<svg width="24" height="24" viewBox="0 0 24 24" fill="none" xmlns="http://www.w3.org/2000/svg">
<path d="M14.5 9.23047H9.50023C9.50023 9.23047 6 11.9994 6 15.2307C6 17.0763 7.50521 17.9996 8.49989 17.9996H15.5001C16.499 17.9996 18 17.0762 18 15.2307C18 11.9994 14.4998 9.23047 14.4998 9.23047H14.5ZM12.4995 15.6451V16.3841H11.5007L11.5006 15.6476C10.7644 15.5212 10.302 15.1019 10.2691 14.493H11.1353C11.1777 14.8126 11.5267 15.0185 12.0316 15.0185C12.4968 15.0185 12.8265 14.8101 12.8265 14.5133C12.8265 14.2607 12.6131 14.1166 12.0877 14.008L11.5308 13.8982C10.7508 13.7478 10.3676 13.3726 10.3676 12.7701C10.3676 12.1676 10.8028 11.733 11.4952 11.5903V10.8461H12.494V11.5914C13.17 11.7304 13.6202 12.156 13.642 12.7282L12.806 12.7283C12.7636 12.4163 12.4489 12.2079 12.0165 12.2079C11.5841 12.2079 11.2721 12.3999 11.2721 12.7006C11.2721 12.9444 11.476 13.0796 11.9781 13.1831L12.494 13.2842C13.3547 13.4509 13.7255 13.7894 13.7255 14.4072C13.7256 15.0678 13.2658 15.51 12.4995 15.6451L12.4995 15.6451Z" fill="#999999"/>
<path d="M14.4986 6.45915H13.1166C12.8311 6.16688 12.4249 6 11.9986 6C11.5723 6 11.1661 6.16689 10.8806 6.45915H9.49864C9.33333 6.45977 9.17909 6.53572 9.08631 6.66199C8.99353 6.78826 8.97426 6.94872 9.03477 7.09076L9.49863 8.30471H14.4984L14.9623 7.09076C15.0228 6.94872 15.0035 6.78827 14.9107 6.66199C14.818 6.53572 14.6637 6.45977 14.4984 6.45915H14.4986Z" fill="#999999"/>
</svg>
