<svg width="16" height="16" viewBox="0 0 16 16" fill="none" xmlns="http://www.w3.org/2000/svg">
<path d="M8 3C6.14092 3 4.60679 3.49998 3.89208 4.31503C2.70264 5.695 2.70264 10.3151 3.89208 11.6851C4.60672 12.5 6.14094 13 8 13C9.85906 13 11.3932 12.5 12.1079 11.685C13.2974 10.305 13.2974 5.68489 12.1079 4.31494C11.3933 3.49998 9.85906 3 8 3ZM8 5.37496C8.16565 5.37496 8.32452 5.44084 8.44174 5.55803C8.55887 5.67522 8.62471 5.83418 8.62471 6C8.62471 6.16574 8.55887 6.32469 8.44174 6.44188C8.32453 6.55916 8.16564 6.62495 8 6.62495C7.83435 6.62495 7.67548 6.55916 7.55826 6.44188C7.44113 6.32469 7.37529 6.16573 7.37529 6C7.37529 5.83418 7.44113 5.67522 7.55826 5.55803C7.67547 5.44084 7.83435 5.37496 8 5.37496ZM8.49972 10.75H7.50028C7.32174 10.75 7.15676 10.6547 7.06749 10.5C6.97822 10.3453 6.97822 10.1547 7.06749 9.99996C7.15676 9.84527 7.32174 9.75001 7.50028 9.75001V8.24999C7.32174 8.24999 7.15676 8.15465 7.06749 7.99996C6.97822 7.84527 6.97822 7.65467 7.06749 7.49998C7.15676 7.34529 7.32174 7.24995 7.50028 7.24995H8C8.13252 7.24995 8.25969 7.3026 8.35339 7.39643C8.4471 7.49018 8.49972 7.61734 8.49972 7.74992V9.75001C8.67826 9.75001 8.84324 9.84527 8.93251 9.99996C9.02178 10.1546 9.02178 10.3453 8.93251 10.5C8.84324 10.6547 8.67826 10.75 8.49972 10.75Z" fill="#8A8A8A"/>
</svg>
