<svg width="24" height="24" viewBox="0 0 24 24" fill="none" xmlns="http://www.w3.org/2000/svg">
<path d="M15.1216 5.5H8.86528C7.28806 5.5 6 6.74051 6 8.25949V12.8401C6 14.3591 7.28806 15.5996 8.86528 15.5996H9.75904C9.74589 16.0933 9.66703 16.7389 9.39102 17.4224C9.25958 17.7389 9.35159 18.0933 9.6276 18.3085C9.78532 18.4351 9.96933 18.4984 10.1665 18.4984C10.2979 18.4984 10.4425 18.4604 10.5739 18.3971C11.9277 17.6629 13.0712 16.3718 13.6889 15.587H15.1347C16.7119 15.587 18 14.3465 18 12.8275V8.25949C18.0002 6.74051 16.7117 5.5 15.1216 5.5Z" fill="#8A8A8A"/>
<path d="M12.182 12.9774C12.182 13.116 12.1269 13.249 12.0289 13.347C11.931 13.4449 11.798 13.5 11.6594 13.5C11.5208 13.5 11.388 13.445 11.2899 13.347C11.1919 13.249 11.1369 13.116 11.1369 12.9774C11.1369 12.8389 11.1919 12.7059 11.2899 12.6079C11.388 12.5099 11.5209 12.4549 11.6594 12.4549C11.7982 12.4549 11.9313 12.5101 12.0293 12.6083C12.1274 12.7065 12.1823 12.8398 12.182 12.9785L12.182 12.9774ZM10.0293 8.9048C9.98362 8.77493 9.99159 8.63214 10.0515 8.50811C10.1945 8.20793 10.4192 7.95411 10.6999 7.77583C10.9806 7.59748 11.3058 7.50193 11.6383 7.5H11.6489C12.1129 7.50184 12.5582 7.683 12.8917 8.00553C13.2253 8.32798 13.4213 8.76696 13.4387 9.23063C13.4506 9.61109 13.3396 9.98526 13.1222 10.2977C12.9048 10.6102 12.5926 10.8443 12.2317 10.9655C12.2317 10.9655 12.1799 10.9835 12.1799 11.0141V11.4288C12.1799 11.6145 12.0808 11.7861 11.9199 11.879C11.759 11.9719 11.5608 11.9719 11.4 11.879C11.2391 11.7861 11.14 11.6145 11.14 11.4288V11.0141C11.1424 10.7843 11.2167 10.561 11.3525 10.3756C11.4885 10.1902 11.679 10.052 11.8975 9.98061C12.0478 9.92963 12.1779 9.83171 12.2683 9.70125C12.3588 9.5708 12.4049 9.41466 12.3999 9.25602C12.3897 9.06387 12.3069 8.88279 12.1683 8.74947C12.0296 8.61613 11.8454 8.54044 11.6531 8.53777C11.5143 8.53925 11.3787 8.57968 11.2619 8.65451C11.145 8.72933 11.0514 8.83551 10.9919 8.96088C10.9328 9.08684 10.8256 9.18372 10.6943 9.22991C10.563 9.2761 10.4188 9.26769 10.2938 9.20659C10.1688 9.14549 10.0735 9.03681 10.0293 8.9048Z" fill="white"/>
</svg>
