<svg width="16" height="16" viewBox="0 0 16 16" fill="none" xmlns="http://www.w3.org/2000/svg">
<path d="M11.3642 8.78325L11.3442 8.81136C11.3192 8.84569 11.2942 8.87848 11.2692 8.91292L8.37417 12.8184C8.28976 12.9321 8.15118 13 8.0033 13C7.85542 13 7.71696 12.9321 7.63244 12.8184L4.74076 8.91906C4.71413 8.8831 4.68576 8.84725 4.65914 8.80965L4.64077 8.7847C4.11773 8.02637 3.90428 7.11649 4.03973 6.2224C4.17505 5.3282 4.65021 4.50995 5.37786 3.91794C6.10539 3.32602 7.0365 3 7.99996 3C8.9635 3 9.89461 3.32605 10.6221 3.91794C11.3498 4.50998 11.8249 5.32822 11.9603 6.2224C12.0957 7.11649 11.8823 8.02637 11.3592 8.7847L11.3642 8.78325ZM8.00257 5.19025C7.56054 5.19025 7.13655 5.3549 6.82405 5.6478C6.51143 5.94082 6.33589 6.33811 6.33589 6.75242C6.33589 7.16673 6.51144 7.56414 6.82405 7.85705C7.13655 8.15007 7.56054 8.3146 8.00257 8.3146C8.4446 8.3146 8.86858 8.15005 9.18109 7.85705C9.49371 7.56414 9.66924 7.16673 9.66924 6.75242C9.66924 6.33811 9.49369 5.94082 9.18109 5.6478C8.86858 5.35489 8.4446 5.19025 8.00257 5.19025Z" fill="#8A8A8A"/>
</svg>
