<svg width="24" height="24" viewBox="0 0 24 24" fill="none" xmlns="http://www.w3.org/2000/svg">
<path d="M10.0354 8.03491C9.85791 8.2124 9.85791 8.50027 10.0354 8.67777C10.2129 8.85526 10.5008 8.85526 10.6783 8.67777L11.6157 7.74032L11.6157 10.2983C10.7245 10.3971 9.85949 10.7822 9.17839 11.4633C7.58464 13.0571 7.58464 15.655 9.17839 17.2487C10.7721 18.8424 13.37 18.8424 14.9637 17.2487C16.5575 15.655 16.5575 13.0571 14.9637 11.4633C14.2817 10.7813 13.4156 10.3932 12.5231 10.2949L12.5231 7.73696L13.4639 8.67776C13.6414 8.85525 13.9292 8.85526 14.1067 8.67777C14.2842 8.50027 14.2843 8.21248 14.1067 8.03491L12.3925 6.32063C12.3073 6.23544 12.1917 6.18754 12.071 6.18754C11.9505 6.18761 11.835 6.23544 11.7497 6.32071L10.0354 8.03491ZM9.82113 12.1061C11.0675 10.8597 13.0745 10.8597 14.3209 12.1061C15.5672 13.3525 15.5672 15.3595 14.3209 16.6058C13.0745 17.8522 11.0675 17.8522 9.82113 16.6058C8.57481 15.3595 8.57477 13.3524 9.82113 12.1061Z" fill="#714FD1"/>
</svg>
