<svg width="300" height="300" viewBox="0 0 300 300" fill="none" xmlns="http://www.w3.org/2000/svg">
<rect width="300" height="300" fill="white"/>
<ellipse cx="150.5" cy="233.5" rx="94.5" ry="19.5" fill="#222222"/>
<g clip-path="url(#clip0_85_80)">
<path d="M114.79 61.024C109.795 61.024 105.091 63.3677 102.094 67.3553C96.0038 75.4717 89 91.3123 89 142.185C89 149.011 91.7172 155.558 96.5529 160.383C101.389 165.209 107.95 167.92 114.79 167.92H127.884L135.384 179.681C138.653 184.86 144.357 188.003 150.489 188.003C156.622 188.003 162.325 184.86 165.595 179.681L173.113 167.92H186.206C193.047 167.92 199.604 165.209 204.444 160.383C209.279 155.558 211.996 149.011 211.996 142.185C211.996 91.2875 204.993 75.4505 198.903 67.3553C196.671 64.3752 193.461 62.2754 189.834 61.4199C186.206 60.5644 182.394 61.0134 179.064 62.6819C173.867 65.3474 169.109 68.794 164.957 72.8982C155.506 70.1409 145.462 70.1409 136.014 72.8982C131.855 68.7657 127.083 65.2908 121.868 62.6042C119.669 61.5401 117.242 60.9992 114.79 61.024ZM130.661 92.698C136.549 88.8236 143.447 86.7591 150.5 86.7591C157.553 86.7591 164.451 88.8236 170.339 92.6945C174.306 82.7963 186.21 76.8575 186.21 76.8575C188.612 80.0637 196.129 90.7148 196.129 142.185C196.129 144.812 195.084 147.329 193.224 149.184C191.364 151.04 188.842 152.083 186.21 152.083H164.387L152.208 171.165C151.853 171.784 151.194 172.169 150.482 172.169C149.77 172.169 149.108 171.784 148.753 171.165L136.613 152.083H114.79C112.158 152.083 109.636 151.04 107.776 149.184C105.916 147.329 104.871 144.808 104.871 142.185C104.871 90.7148 112.388 80.0425 114.79 76.8575C114.79 76.8575 126.694 82.7963 130.661 92.6945V92.698Z" fill="#FF9900"/>
<path d="M155.49 131.055C155.49 129.92 154.569 129 153.435 129H147.055C145.92 129 145 129.92 145 131.055L150.245 134.76L155.49 131.055Z" fill="#FF9900" stroke="#FF9900" stroke-width="3" stroke-linecap="round" stroke-linejoin="round"/>
<circle cx="134" cy="116" r="5" fill="#FF9900"/>
<circle cx="166" cy="116" r="5" fill="#FF9900"/>
</g>
<defs>
<clipPath id="clip0_85_80">
<rect width="123" height="127" fill="white" transform="translate(89 61)"/>
</clipPath>
</defs>
</svg>
