<svg width="24" height="24" viewBox="0 0 24 24" fill="none" xmlns="http://www.w3.org/2000/svg">
<path fill-rule="evenodd" clip-rule="evenodd" d="M17.1429 4H6.85714C6.09927 4 5.37274 4.30106 4.8369 4.8369C4.30106 5.37273 4 6.09927 4 6.85714V17.1429C4 17.9007 4.30106 18.6273 4.8369 19.1631C5.37274 19.6989 6.09927 20 6.85714 20H17.1429C17.9007 20 18.6273 19.6989 19.1631 19.1631C19.6989 18.6273 20 17.9007 20 17.1429V6.85714C20 6.09927 19.6989 5.37273 19.1631 4.8369C18.6273 4.30106 17.9007 4 17.1429 4ZM5.64637 18.3536C5.32539 18.0323 5.14416 17.5971 5.14286 17.1429V13.8746L7.41159 10.0918C7.55396 9.85143 7.80702 9.69927 8.08588 9.68588C8.36669 9.66563 8.63739 9.79363 8.80033 10.0229L11.7887 14.0059L10.64 16.2975C10.5564 16.479 10.574 16.6913 10.6864 16.8568C10.7987 17.022 10.9894 17.1171 11.1889 17.1066C11.3887 17.0962 11.5687 16.9819 11.663 16.8059L12.9659 14.2002L13.4171 13.2973C13.6771 12.7732 14.1603 12.3951 14.7314 12.2687C15.3045 12.1368 15.9066 12.2687 16.3716 12.6286L18.8571 14.5656V17.1429C18.8558 17.5971 18.6749 18.0327 18.3536 18.3536C18.0323 18.6746 17.5971 18.8558 17.1429 18.8571H6.85714C6.40294 18.8558 5.96735 18.6749 5.64637 18.3536ZM13.8452 10.4007C12.8263 10.4007 12.0003 9.57474 12.0003 8.55584C12.0003 7.53693 12.8263 6.71094 13.8452 6.71094C14.8641 6.71094 15.6901 7.53693 15.6901 8.55584C15.6901 9.57474 14.8641 10.4007 13.8452 10.4007Z" fill="#8A8A8A"/>
</svg>
