<svg width="40" height="43" viewBox="0 0 40 43" fill="none" xmlns="http://www.w3.org/2000/svg">
<path d="M20 0C9 0 0 9 0 20C0 31 9 40 20 40C31 40 40 31 40 20C40 9 31 0 20 0Z" fill="#FFE4BC"/>
<mask id="mask0_383_1304" style="mask-type:alpha" maskUnits="userSpaceOnUse" x="7" y="9" width="26" height="34">
<g clip-path="url(#clip0_383_1304)">
<path d="M32.1488 21.4865C32.1543 21.4707 32.1651 21.4543 32.1759 21.4379H32.1765C32.828 20.2953 33.1081 18.9948 32.9627 17.7708C32.7848 16.3179 32.0202 15.0939 30.8512 14.4084C30.2261 14.0496 29.5048 13.8535 28.7721 13.8535C28.4704 13.8535 28.174 13.8808 27.8831 13.9403C27.8723 11.6004 26.5362 9.61504 24.4571 9.11414C24.1451 9.03825 23.8272 9 23.5038 9C22.1629 9 20.9187 9.64175 20.0081 10.714C19.0926 9.64175 17.8424 9 16.5015 9C16.1781 9 15.8608 9.03764 15.5482 9.11414C14.2397 9.42986 13.1566 10.3819 12.5808 11.7315C12.2845 12.4115 12.1336 13.168 12.1282 13.9458C11.8373 13.8863 11.5355 13.8535 11.2392 13.8535C10.5011 13.8535 9.77984 14.0496 9.15474 14.4084C6.90858 15.7193 6.33217 18.8041 7.83541 21.4379L7.85164 21.4707C9.38615 24.1148 10.2967 27.0746 10.2967 30.1377V43H29.6983V30.1486C29.6983 27.0856 30.6083 24.1251 32.1488 21.4865Z" fill="#999999"/>
<path d="M24.9231 22.8226C24.7466 22.5972 24.5966 22.4055 24.4984 22.2467C23.0876 20.055 22.075 18.7177 19.8614 18.7177C17.6477 18.7177 16.6284 20.055 15.2177 22.2467C15.1195 22.4055 14.9695 22.5979 14.7996 22.8226C13.931 23.9352 12.3113 26.0072 13.4738 28.2123C14.1659 29.5369 15.4334 29.8282 16.7333 29.8282C17.3013 29.8282 17.8766 29.775 18.4055 29.7226C18.9284 29.6694 19.4181 29.623 19.862 29.623C20.306 29.623 20.7957 29.6694 21.3119 29.7226C23.0691 29.8948 25.2502 30.1067 26.2495 28.213C27.4055 26.0079 25.7923 23.9352 24.9237 22.8232L24.9231 22.8226ZM23.7346 11.4141C22.3564 11.0831 20.8998 12.2617 20.4818 14.0498C20.4035 14.374 20.371 14.6983 20.371 15.0165C20.371 16.4137 21.0896 17.6118 22.213 17.8835C22.3697 17.9232 22.5269 17.9434 22.6769 17.9434C23.8985 17.9434 25.087 16.8307 25.4592 15.2485C25.8833 13.4672 25.1062 11.7457 23.7346 11.4141ZM14.1533 17.9421C13.7286 17.194 13.1016 16.6108 12.3962 16.3067C11.6517 15.9825 10.9071 16.002 10.3 16.3599C9.07835 17.0749 8.81756 18.9484 9.72533 20.5381C10.3849 21.7099 11.5017 22.3988 12.5276 22.3988C12.8998 22.3988 13.2588 22.3127 13.5793 22.1209C14.1865 21.7631 14.5787 21.1213 14.6769 20.3066C14.7685 19.5384 14.5853 18.6975 14.154 17.9427L14.1533 17.9421ZM19.2343 14.0484C18.8162 12.261 17.3597 11.0757 15.9815 11.4127C14.6099 11.7437 13.8388 13.4652 14.2575 15.2465C14.6298 16.8287 15.8182 17.9414 17.0399 17.9414C17.1965 17.9414 17.3531 17.9212 17.5103 17.8815C18.1965 17.716 18.7512 17.2128 19.071 16.4581C19.3776 15.7436 19.4367 14.8893 19.2343 14.0484ZM30.5203 18.1795C30.4221 17.3656 30.0306 16.7164 29.4227 16.3585C28.8089 16.0006 28.0644 15.9811 27.3192 16.3054C26.6138 16.6101 25.9934 17.1927 25.5621 17.9407C25.2091 18.5697 25.02 19.2586 25.02 19.9205C25.02 20.0463 25.0266 20.1788 25.0399 20.3046C25.1381 21.1186 25.5296 21.761 26.1374 22.1189C26.4639 22.3113 26.8235 22.4035 27.2018 22.4035C27.5349 22.4035 27.8879 22.3308 28.2403 22.1781C28.9456 21.8734 29.5661 21.2908 29.9974 20.536C30.4221 19.788 30.6112 18.9471 30.5203 18.1789V18.1795Z" fill="white"/>
</g>
</mask>
<g mask="url(#mask0_383_1304)">
<circle cx="20" cy="20" r="20" fill="#171717"/>
<path d="M24.9231 22.8226C24.7466 22.5972 24.5966 22.4055 24.4984 22.2467C23.0876 20.055 22.075 18.7177 19.8614 18.7177C17.6477 18.7177 16.6284 20.055 15.2177 22.2467C15.1195 22.4055 14.9695 22.5979 14.7996 22.8226C13.931 23.9352 12.3113 26.0072 13.4738 28.2123C14.1659 29.5369 15.4334 29.8282 16.7333 29.8282C17.3013 29.8282 17.8766 29.775 18.4055 29.7226C18.9284 29.6694 19.4181 29.623 19.862 29.623C20.306 29.623 20.7957 29.6694 21.3119 29.7226C23.0691 29.8948 25.2502 30.1067 26.2495 28.213C27.4055 26.0079 25.7923 23.9352 24.9237 22.8232L24.9231 22.8226ZM23.7346 11.4141C22.3564 11.0831 20.8998 12.2617 20.4818 14.0498C20.4035 14.374 20.371 14.6983 20.371 15.0165C20.371 16.4137 21.0896 17.6118 22.213 17.8835C22.3697 17.9232 22.5269 17.9434 22.6769 17.9434C23.8985 17.9434 25.087 16.8307 25.4592 15.2485C25.8833 13.4672 25.1062 11.7457 23.7346 11.4141ZM14.1533 17.9421C13.7286 17.194 13.1016 16.6108 12.3962 16.3067C11.6517 15.9825 10.9071 16.002 10.3 16.3599C9.07835 17.0749 8.81756 18.9484 9.72533 20.5381C10.3849 21.7099 11.5017 22.3988 12.5276 22.3988C12.8998 22.3988 13.2588 22.3127 13.5793 22.1209C14.1865 21.7631 14.5787 21.1213 14.6769 20.3066C14.7685 19.5384 14.5853 18.6975 14.154 17.9427L14.1533 17.9421ZM19.2343 14.0484C18.8162 12.261 17.3597 11.0757 15.9815 11.4127C14.6099 11.7437 13.8388 13.4652 14.2575 15.2465C14.6298 16.8287 15.8182 17.9414 17.0399 17.9414C17.1965 17.9414 17.3531 17.9212 17.5103 17.8815C18.1965 17.716 18.7512 17.2128 19.071 16.4581C19.3776 15.7436 19.4367 14.8893 19.2343 14.0484ZM30.5203 18.1795C30.4221 17.3656 30.0306 16.7164 29.4227 16.3585C28.8089 16.0006 28.0644 15.9811 27.3192 16.3054C26.6138 16.6101 25.9934 17.1927 25.5621 17.9407C25.2091 18.5697 25.02 19.2586 25.02 19.9205C25.02 20.0463 25.0266 20.1788 25.0399 20.3046C25.1381 21.1186 25.5296 21.761 26.1374 22.1189C26.4639 22.3113 26.8235 22.4035 27.2018 22.4035C27.5349 22.4035 27.8879 22.3308 28.2403 22.1781C28.9456 21.8734 29.5661 21.2908 29.9974 20.536C30.4221 19.788 30.6112 18.9471 30.5203 18.1789V18.1795Z" fill="#FF9900"/>
</g>
<defs>
<clipPath id="clip0_383_1304">
<rect width="26" height="34" fill="white" transform="translate(7 9)"/>
</clipPath>
</defs>
</svg>
