<svg width="24" height="24" viewBox="0 0 24 24" fill="none" xmlns="http://www.w3.org/2000/svg">
<path d="M6.5 12C6.5 8.97614 8.97614 6.5 12 6.5C15.0239 6.5 17.5 8.97614 17.5 12C17.5 15.0239 15.0239 17.5 12 17.5C8.97614 17.5 6.5 15.0239 6.5 12Z" fill="white" stroke="#8A8A8A"/>
<path d="M12.482 14.4774C12.482 14.616 12.427 14.749 12.329 14.847C12.231 14.9449 12.098 15 11.9595 15C11.8209 15 11.688 14.945 11.5899 14.847C11.492 14.749 11.4369 14.616 11.4369 14.4774C11.4369 14.3389 11.492 14.2059 11.5899 14.1079C11.688 14.0099 11.8209 13.9549 11.9595 13.9549C12.0983 13.9549 12.2313 14.0101 12.3294 14.1083C12.4274 14.2065 12.4823 14.3398 12.482 14.4785L12.482 14.4774ZM10.3293 10.4048C10.2837 10.2749 10.2916 10.1321 10.3516 10.0081C10.4946 9.70793 10.7192 9.45411 10.9999 9.27583C11.2806 9.09748 11.6058 9.00193 11.9383 9H11.9489C12.4129 9.00184 12.8582 9.183 13.1917 9.50553C13.5253 9.82798 13.7213 10.267 13.7387 10.7306C13.7506 11.1111 13.6396 11.4853 13.4223 11.7977C13.2049 12.1102 12.8926 12.3443 12.5318 12.4655C12.5318 12.4655 12.48 12.4835 12.48 12.5141V12.9288C12.48 13.1145 12.3809 13.2861 12.2199 13.379C12.0591 13.4719 11.8609 13.4719 11.7 13.379C11.5392 13.2861 11.4401 13.1145 11.4401 12.9288V12.5141C11.4424 12.2843 11.5167 12.061 11.6526 11.8756C11.7885 11.6902 11.979 11.552 12.1975 11.4806C12.3479 11.4296 12.4779 11.3317 12.5684 11.2013C12.6588 11.0708 12.705 10.9147 12.6999 10.756C12.6898 10.5639 12.607 10.3828 12.4683 10.2495C12.3297 10.1161 12.1455 10.0404 11.9531 10.0378C11.8143 10.0392 11.6788 10.0797 11.5619 10.1545C11.445 10.2293 11.3515 10.3355 11.292 10.4609C11.2328 10.5868 11.1256 10.6837 10.9943 10.7299C10.8631 10.7761 10.7188 10.7677 10.5938 10.7066C10.4688 10.6455 10.3736 10.5368 10.3293 10.4048Z" fill="#8A8A8A"/>
</svg>
