<svg width="24" height="24" viewBox="0 0 24 24" fill="none" xmlns="http://www.w3.org/2000/svg">
<path d="M16.9388 7.03929C16.8151 6.91557 16.6348 6.86727 16.4659 6.91255C16.2969 6.95784 16.165 7.08982 16.1197 7.25874C16.0744 7.42767 16.1227 7.60795 16.2464 7.73167C17.2604 8.74067 17.8841 10.0763 18.0071 11.5015C18.1301 12.9266 17.7444 14.3492 16.9182 15.5172C16.0921 16.685 14.8792 17.5225 13.4943 17.8812C12.1096 18.2398 10.6425 18.0964 9.35338 17.4765C8.06426 16.8564 7.03627 15.7999 6.45217 14.4943C5.86778 13.1887 5.76477 11.7182 6.16133 10.3439C6.55789 8.96949 7.42839 7.78002 8.61851 6.9863C9.80864 6.19262 11.2414 5.84623 12.6625 6.00835L11.6309 7.03995C11.5072 7.16367 11.4589 7.34394 11.5042 7.51287C11.5494 7.6818 11.6814 7.81378 11.8504 7.85907C12.0193 7.90436 12.1996 7.85606 12.3233 7.73235L14.0122 6.04344C14.0205 6.03509 14.0232 6.02404 14.0307 6.0157L14.0307 6.01577C14.0494 5.99344 14.0657 5.96933 14.0796 5.94375C14.0977 5.91539 14.1127 5.88526 14.1244 5.85381C14.1302 5.84322 14.1354 5.83248 14.1401 5.82143C14.1451 5.80342 14.1405 5.78495 14.1432 5.76648L14.1433 5.76656C14.1484 5.73596 14.1506 5.70505 14.1497 5.67422C14.148 5.64114 14.1431 5.60838 14.135 5.57631C14.1282 5.55111 14.1195 5.52639 14.1092 5.50243C14.0944 5.46851 14.0756 5.43644 14.0534 5.40692C14.0475 5.39579 14.041 5.38497 14.0339 5.37462L12.3066 3.40917C12.2208 3.31118 12.0998 3.25137 11.9699 3.24263C11.8401 3.23398 11.7121 3.27725 11.6142 3.36294C11.5163 3.44863 11.4564 3.56973 11.4478 3.69955C11.439 3.82945 11.4823 3.95742 11.568 4.05533L12.4114 5.01216C10.7765 4.91594 9.15942 5.39596 7.84199 6.36873C6.52445 7.34162 5.58983 8.74562 5.20055 10.3365C4.81133 11.9274 4.99234 13.6044 5.71199 15.0758C6.4316 16.547 7.64432 17.7193 9.13917 18.3887C10.6339 19.0581 12.3161 19.1821 13.8929 18.7393C15.4696 18.2963 16.8412 17.3145 17.7689 15.9648C18.6965 14.6151 19.1215 12.9827 18.9697 11.3521C18.8181 9.72123 18.0994 8.19538 16.9388 7.03984L16.9388 7.03929Z" fill="#171717"/>
</svg>
