<svg width="24" height="24" viewBox="0 0 24 24" fill="none" xmlns="http://www.w3.org/2000/svg">
<path d="M10.4968 15.9875C7.46898 15.9875 5 13.5186 5 10.4792C5.30337 3.17361 15.6904 3.17361 15.9887 10.4792C15.9887 13.5133 13.525 15.9875 10.4919 15.9875H10.4968ZM18.681 17.1714L15.6372 14.1212L14.1313 15.6302L17.1751 18.6804C18.1808 19.6562 19.6549 18.1792 18.681 17.1714Z" fill="white"/>
<path d="M10.8812 12.9774C10.8812 13.116 10.8262 13.249 10.7282 13.347C10.6302 13.4449 10.4972 13.5 10.3586 13.5C10.2201 13.5 10.0872 13.445 9.98912 13.347C9.89113 13.249 9.83608 13.116 9.83608 12.9774C9.83608 12.8389 9.89113 12.7059 9.98912 12.6079C10.0872 12.5099 10.2201 12.4549 10.3586 12.4549C10.4974 12.4549 10.6305 12.5101 10.7285 12.6083C10.8266 12.7065 10.8815 12.8398 10.8812 12.9785L10.8812 12.9774ZM8.72852 8.9048C8.68284 8.77493 8.69081 8.63214 8.75073 8.50811C8.89373 8.20793 9.11842 7.95411 9.3991 7.77583C9.67979 7.59748 10.005 7.50193 10.3375 7.5H10.3481C10.8121 7.50184 11.2574 7.683 11.5909 8.00553C11.9245 8.32798 12.1205 8.76696 12.1379 9.23063C12.1498 9.61109 12.0388 9.98526 11.8214 10.2977C11.604 10.6102 11.2918 10.8443 10.9309 10.9655C10.9309 10.9655 10.8791 10.9835 10.8791 11.0141V11.4288C10.8791 11.6145 10.78 11.7861 10.6191 11.879C10.4583 11.9719 10.2601 11.9719 10.0992 11.879C9.93835 11.7861 9.83924 11.6145 9.83924 11.4288V11.0141C9.8416 10.7843 9.91591 10.561 10.0518 10.3756C10.1877 10.1902 10.3782 10.052 10.5967 9.98061C10.7471 9.92963 10.8771 9.83171 10.9675 9.70125C11.058 9.5708 11.1041 9.41466 11.0991 9.25602C11.0889 9.06387 11.0061 8.88279 10.8675 8.74947C10.7288 8.61613 10.5447 8.54044 10.3523 8.53777C10.2135 8.53925 10.078 8.57968 9.96108 8.65451C9.8442 8.72933 9.75063 8.83551 9.69116 8.96088C9.63198 9.08684 9.52477 9.18372 9.3935 9.22991C9.26223 9.2761 9.11797 9.26769 8.99298 9.20659C8.86798 9.14549 8.77272 9.03681 8.72852 8.9048Z" fill="#171717"/>
</svg>
