<svg width="24" height="24" viewBox="0 0 24 24" fill="none" xmlns="http://www.w3.org/2000/svg">
<path d="M7.42969 14.7458C7.61744 14.7085 7.80912 14.6907 8.00112 14.6919H16.0011C16.1931 14.6907 16.3848 14.7085 16.5725 14.7458V12.5381C16.5725 10.999 15.7014 9.57716 14.2868 8.80762C12.8723 8.03808 11.1299 8.03808 9.7154 8.80762C8.30087 9.57716 7.42969 10.9993 7.42969 12.5381V14.7458Z" fill="white"/>
<path d="M15.9993 15.7695H7.99928C7.38671 15.7695 6.82083 16.0775 6.51487 16.5772C6.20858 17.0769 6.20858 17.6929 6.51487 18.1926C6.82116 18.6923 7.38703 19.0003 7.99928 19.0003H15.9993C16.6119 19.0003 17.1777 18.6923 17.484 18.1926C17.7903 17.6929 17.7903 17.0769 17.484 16.5772C17.1777 16.0775 16.6119 15.7695 15.9996 15.7695H15.9993Z" fill="white"/>
<path d="M12.0011 7.15396C12.1526 7.15396 12.2979 7.09735 12.4054 6.99642C12.5128 6.8955 12.5725 6.75858 12.5725 6.6155V5.53858C12.5725 5.34627 12.4635 5.16842 12.2868 5.07212C12.1102 4.97581 11.8921 4.97612 11.7154 5.07212C11.5387 5.16812 11.4297 5.34596 11.4297 5.53858V6.6155C11.4297 6.75827 11.4898 6.89519 11.5969 6.99642C11.704 7.09765 11.8493 7.15396 12.0011 7.15396Z" fill="white"/>
<path d="M6.74738 8.88969C6.85383 8.99369 7.00011 9.05276 7.15326 9.054C7.30673 9.05523 7.45399 8.99861 7.5624 8.89646C7.67081 8.7943 7.73122 8.65553 7.72958 8.51092C7.72828 8.36661 7.66558 8.22876 7.55522 8.12846L6.68926 7.31276C6.58281 7.20876 6.43652 7.14969 6.28338 7.14846C6.12991 7.14723 5.98264 7.20384 5.87424 7.306C5.76583 7.40815 5.70575 7.54692 5.70705 7.69153C5.70836 7.83584 5.77105 7.974 5.88142 8.074L6.74705 8.89L6.74738 8.88969Z" fill="white"/>
<path d="M5.71441 12.5391H4.57155C4.36747 12.5391 4.17873 12.6418 4.07653 12.8083C3.97433 12.9748 3.97465 13.1803 4.07653 13.3468C4.17841 13.5132 4.36714 13.616 4.57155 13.616H5.71441C5.91849 13.616 6.10722 13.5132 6.20943 13.3468C6.31163 13.1803 6.31131 12.9748 6.20943 12.8083C6.10755 12.6418 5.91882 12.5391 5.71441 12.5391Z" fill="white"/>
<path d="M16.8488 9.04753C17.0003 9.04753 17.1456 8.99092 17.2527 8.89L18.1183 8.0743C18.2287 7.974 18.2914 7.83584 18.2927 7.69153C18.294 7.54692 18.2339 7.40815 18.1255 7.306C18.0171 7.20384 17.8698 7.14723 17.7164 7.14846C17.5632 7.14969 17.4166 7.20876 17.3105 7.31276L16.4445 8.12846C16.3374 8.22938 16.2773 8.3663 16.2773 8.50907C16.2773 8.65184 16.3374 8.78876 16.4445 8.89C16.5516 8.99123 16.6969 9.04753 16.8484 9.04753H16.8488Z" fill="white"/>
<path d="M19.4293 12.5391H18.2864C18.0823 12.5391 17.8936 12.6418 17.7914 12.8083C17.6892 12.9748 17.6895 13.1803 17.7914 13.3468C17.8933 13.5132 18.082 13.616 18.2864 13.616H19.4293C19.6333 13.616 19.8221 13.5132 19.9243 13.3468C20.0265 13.1803 20.0262 12.9748 19.9243 12.8083C19.8224 12.6418 19.6337 12.5391 19.4293 12.5391Z" fill="white"/>
</svg>
