<svg width="16" height="16" viewBox="0 0 16 16" fill="none" xmlns="http://www.w3.org/2000/svg">
<path d="M8 3C6.6739 3 5.40216 3.52678 4.46449 4.46449C3.52678 5.40213 3 6.67394 3 8C3 9.32606 3.52678 10.5978 4.46449 11.5355C5.40213 12.4732 6.67394 13 8 13C9.32606 13 10.5978 12.4732 11.5355 11.5355C12.4732 10.5979 13 9.32606 13 8C13 6.67394 12.4732 5.40216 11.5355 4.46449C10.5979 3.52678 9.32606 3 8 3ZM11.2291 8.41657H8C7.88951 8.41657 7.78348 8.37269 7.70536 8.29457C7.62723 8.21644 7.58336 8.11043 7.58336 7.99993V4.77084C7.58336 4.62199 7.66274 4.48444 7.79164 4.41001C7.92055 4.33558 8.07945 4.33558 8.20836 4.41001C8.33726 4.48444 8.41664 4.62199 8.41664 4.77084V7.58332H11.2291C11.378 7.58332 11.5155 7.6627 11.59 7.79161C11.6644 7.92051 11.6644 8.07941 11.59 8.20832C11.5155 8.33723 11.378 8.4166 11.2291 8.4166L11.2291 8.41657Z" fill="#8A8A8A"/>
</svg>
